<svg xmlns="http://www.w3.org/2000/svg" width="113" height="44" viewBox="0 0 113 44"><g transform="translate(473 83)"><path d="M-470-53V-66a2,2,0,0,1,2-2h38a2,2,0,0,0,2-2V-80a2,2,0,0,1,2-2h19.515a6,6,0,0,1,4.242,1.757l10.486,10.486A6,6,0,0,0-387.515-68H-369a6,6,0,0,1,6,6v17H-470Z" fill="#fff" stroke="#112f47" stroke-miterlimit="10" stroke-width="2"/><path d="M-388-55a11.025,11.025,0,0,1,4.485-3.25" fill="none" stroke="#112f47" stroke-linecap="round" stroke-miterlimit="10" stroke-width="1"/><path d="M-437.13-46a10.964,10.964,0,0,0,.13-1.6,11,11,0,0,0-11-11,11,11,0,0,0-11,11,10.964,10.964,0,0,0,.13,1.6Z" fill="#d2ddeb"/><path d="M-368.13-46a10.964,10.964,0,0,0,.13-1.6,11,11,0,0,0-11-11,11,11,0,0,0-11,11,10.964,10.964,0,0,0,.13,1.6Z" fill="#d2ddeb"/><circle cx="8" cy="8" r="8" transform="translate(-387 -56)" fill="#a3b5c9" stroke="#112f47" stroke-miterlimit="10" stroke-width="2"/><circle cx="4" cy="4" r="4" transform="translate(-383 -52)" fill="#fff" stroke="#112f47" stroke-miterlimit="10" stroke-width="1"/><circle cx="8" cy="8" r="8" transform="translate(-456 -56)" fill="#a3b5c9" stroke="#112f47" stroke-miterlimit="10" stroke-width="2"/><circle cx="4" cy="4" r="4" transform="translate(-452 -52)" fill="#fff" stroke="#112f47" stroke-miterlimit="10" stroke-width="1"/><circle cx="1" cy="1" r="1" transform="translate(-449 -49)" fill="#a3b5c9"/><circle cx="1" cy="1" r="1" transform="translate(-380 -49)" fill="#a3b5c9"/><path d="M3,0H6A1,1,0,0,1,7,1V6A1,1,0,0,1,6,7H0A0,0,0,0,1,0,7V3A3,3,0,0,1,3,0Z" transform="translate(-368 -52)" fill="#fff" stroke="#112f47" stroke-miterlimit="10" stroke-width="2"/><path d="M1,0H6A3,3,0,0,1,9,3V8A0,0,0,0,1,9,8H1A1,1,0,0,1,0,7V1A1,1,0,0,1,1,0Z" transform="translate(-472 -53)" fill="#fff" stroke="#112f47" stroke-miterlimit="10" stroke-width="2"/><rect width="4" height="6" rx="1" transform="translate(-366 -64)" fill="#d2ddeb" stroke="#112f47" stroke-miterlimit="10" stroke-width="1"/><rect width="4" height="6" rx="1" transform="translate(-471 -64)" fill="#d2ddeb" stroke="#112f47" stroke-miterlimit="10" stroke-width="1"/><path d="M-422-81v30.578a8,8,0,0,0,1.344,4.437L-420-45" fill="none" stroke="#112f47" stroke-miterlimit="10" stroke-width="1"/><path d="M-418-77v9a.979.979,0,0,0,.956,1h19.674a1.006,1.006,0,0,0,.676-1.707l-7.762-8.121a3.736,3.736,0,0,0-2.7-1.172h-9.885A.979.979,0,0,0-418-77Z" fill="#a3b5c9" stroke="#112f47" stroke-miterlimit="10" stroke-width="1"/><line y2="24" transform="translate(-391 -69)" fill="none" stroke="#112f47" stroke-miterlimit="10" stroke-width="1"/><rect width="6" height="2" rx="0.5" transform="translate(-419 -64)" fill="#a3b5c9" stroke="#112f47" stroke-miterlimit="10" stroke-width="1"/><rect width="3" height="6" rx="1" transform="translate(-398 -70)" fill="#fff" stroke="#112f47" stroke-miterlimit="10" stroke-width="1"/><path d="M0,0H2A1,1,0,0,1,3,1V8A1,1,0,0,1,2,9H0A0,0,0,0,1,0,9V0A0,0,0,0,1,0,0Z" transform="translate(-428 -78)" fill="#a3b5c9" stroke="#112f47" stroke-miterlimit="10" stroke-width="1"/><path d="M-377-65" fill="none" stroke="#112f47" stroke-miterlimit="10" stroke-width="1"/></g></svg>